<svg xmlns="http://www.w3.org/2000/svg"  viewBox="0 0 132 132" width="65px" height="65px"><g id="_x38_3"><path fill="#4fe88d" d="M130,65.9999619c0,35.3471832-28.6586304,63.9943924-63.9943237,63.9943924 C30.6586323,129.9943542,2,101.3471451,2,65.9999619C2,30.6528549,30.6586323,2.0056391,66.0056763,2.0056391 C101.3413696,2.0056391,130,30.6528549,130,65.9999619z"/><circle cx="66" cy="66" r="48.437" fill="#35d175"/><path fill="#24272b" d="M107.0406952,32.7869568v66.4260864c0,5.3199158-4.312645,9.6325607-9.6325607,9.6325607H24.2056675 c-5.3199158,0-9.6325598-4.312645-9.6325598-9.6325607V32.7869568c0-5.3199177,4.312644-9.6325607,9.6325598-9.6325607 h73.2024689C102.7280502,23.1543961,107.0406952,27.4670391,107.0406952,32.7869568z"/><path fill="#fff" d="M100.5982285,47.966465v50.2427711c0,2.5444412-2.08181,4.6262512-4.6262436,4.6262512H25.6530418 c-2.5539227,0-4.6262474-2.0908508-4.6262474-4.6262512V47.966465c0-3.0660057,2.4854889-5.5514946,5.5514965-5.5514946 H95.04673C98.1127396,42.4149704,100.5982285,44.9004593,100.5982285,47.966465z"/><path fill="#43a1ff" d="M30.7393055,32.835453c0,1.8051147-1.4738884,3.2790031-3.2789021,3.2790031 c-1.8051128,0-3.2790012-1.4738884-3.2790012-3.2790031c0-1.8050117,1.4738884-3.2789001,3.2790012-3.2789001 C29.2654171,29.5565529,30.7393055,31.0304413,30.7393055,32.835453z"/><path fill="#2c8cff" d="M30.3709564,34.3262749c-0.5429344,1.056694-1.6389294,1.7871971-2.9128475,1.7871971 c-1.807209,0-3.2783394-1.4711304-3.2783394-3.2783394c0-1.2739182,0.7305031-2.3896809,1.8067284-2.9229717 c-0.2367516,0.4443283-0.3650112,0.9479656-0.3650112,1.4911404c0,1.8069687,1.4711304,3.2785797,3.2783394,3.2785797 C29.4229908,34.681881,29.9268684,34.5533791,30.3709564,34.3262749z"/><path fill="#4fe88d" d="M42.1244926,32.835453c0,1.8051147-1.4738884,3.2790031-3.2789001,3.2790031 c-1.8051147,0-3.2790031-1.4738884-3.2790031-3.2790031c0-1.8050117,1.4738884-3.2789001,3.2790031-3.2789001 C40.6506042,29.5565529,42.1244926,31.0304413,42.1244926,32.835453z"/><path fill="#35d175" d="M41.7571449,34.3262749c-0.5429344,1.056694-1.6394119,1.7871971-2.9133301,1.7871971 c-1.807209,0-3.2783394-1.4711304-3.2783394-3.2783394c0-1.2739182,0.7305031-2.3800373,1.7970848-2.9229717 c-0.2367516,0.4443283-0.3654938,0.9479656-0.3654938,1.4911404c0,1.8069687,1.4812546,3.2785797,3.27882,3.2785797 C40.8091774,34.681881,41.3125725,34.5533791,41.7571449,34.3262749z"/><path fill="#fc545d" d="M53.5096779,32.835453c0,1.8051147-1.4738884,3.2790031-3.2789001,3.2790031 c-1.8051147,0-3.2790031-1.4738884-3.2790031-3.2790031c0-1.8050117,1.4738884-3.2789001,3.2790031-3.2789001 C52.0357895,29.5565529,53.5096779,31.0304413,53.5096779,32.835453z"/><path fill="#f14448" d="M53.152977,34.3262749c-0.5530624,1.056694-1.6490555,1.7871971-2.9229736,1.7871971 c-1.807209,0-3.27882-1.4711304-3.27882-3.2783394c0-1.2739182,0.7309837-2.3699112,1.7874374-2.9229717 c-0.2271042,0.4443283-0.3553658,0.9479656-0.3553658,1.4911404c0,1.8069687,1.4812546,3.2785797,3.2783394,3.2785797 C52.1948853,34.681881,52.7084045,34.5533791,53.152977,34.3262749z"/><g><path fill="#13181e" d="M94.2641983,35.3891907H61.4225731c-1.2683105,0-2.2946129-1.0263023-2.2946129-2.2946129 c0-1.2683086,1.0263023-2.2946091,2.2946129-2.2946091h32.8416252c1.2683105,0,2.2946091,1.0263004,2.2946091,2.2946091 C96.5588074,34.3628883,95.5325089,35.3891907,94.2641983,35.3891907z"/><path d="M96.3868256,32.2094498c-0.2756271-0.1148415-0.5736542-0.1834679-0.8952179-0.1834679H62.6561508 c-1.2621498,0-2.2946129,1.0324631-2.2946129,2.2946129c0,0.3212776,0.0683441,0.6193085,0.1831894,0.8949318 c-0.8257484-0.3442459-1.4223671-1.1473045-1.4223671-2.111145c0-1.2848358,1.0324631-2.2946091,2.2946091-2.2946091 h32.858429C95.2165451,30.8097725,96.0422974,31.3834248,96.3868256,32.2094498z"/></g><g><path fill="#fff" d="M16.4088879,92.1956482l0.0000038-15.7012939c0-0.7118607,0.576025-1.2878799,1.2878819-1.2878799 s1.2878819,0.5760193,1.2878819,1.2878799l-0.0000038,15.7012939c0,0.7118607-0.576025,1.2878799-1.2878819,1.2878799 S16.4088879,92.9075089,16.4088879,92.1956482z" opacity=".3"/><path fill="#fff" d="M16.4088879,71.3431168l0.0000038-2.7012939c0-0.711853,0.576025-1.2878799,1.2878819-1.2878799 s1.2878819,0.5760269,1.2878819,1.2878799l-0.0000038,2.7012939c0,0.7118607-0.576025,1.2878876-1.2878819,1.2878876 S16.4088879,72.0549774,16.4088879,71.3431168z" opacity=".3"/><path fill="#fff" d="M102.504631,86.699646l0.0000076-2.2012939c0-0.711853,0.5760269-1.2878799,1.2878799-1.2878799 c0.7118607,0,1.2878799,0.5760269,1.2878799,1.2878799v2.2012939c0,0.7118607-0.5760269,1.2878799-1.2878876,1.2878799 C103.080658,87.9875259,102.504631,87.4115067,102.504631,86.699646z" opacity=".3"/></g><g><path fill="#fff" d="M60.8059578,25.2880592l20.7013969,0.0000153c0.7118607,0,1.2878876,0.5760307,1.2878876,1.2878914 c0,0.7118626-0.5760269,1.2878895-1.2878876,1.2878895l-20.7013969-0.0000153 c-0.7118607,0-1.2878914-0.5760307-1.2878914-1.2878914C59.5180664,25.8640862,60.0940971,25.2880573,60.8059578,25.2880592z" opacity=".3"/></g><g><path fill="#43a1ff" d="M30.7393055,32.835453c0,1.8051147-1.4738884,3.2790031-3.2789021,3.2790031 c-1.8051128,0-3.2790012-1.4738884-3.2790012-3.2790031c0-1.8050117,1.4738884-3.2789001,3.2790012-3.2789001 C29.2654171,29.5565529,30.7393055,31.0304413,30.7393055,32.835453z"/><path fill="#2c8cff" d="M30.3709564,34.3262749c-0.5429344,1.056694-1.6389294,1.7871971-2.9128475,1.7871971 c-1.807209,0-3.2783394-1.4711304-3.2783394-3.2783394c0-1.2739182,0.7305031-2.3896809,1.8067284-2.9229717 c-0.2367516,0.4443283-0.3650112,0.9479656-0.3650112,1.4911404c0,1.8069687,1.4711304,3.2785797,3.2783394,3.2785797 C29.4229908,34.681881,29.9268684,34.5533791,30.3709564,34.3262749z"/><path fill="#4fe88d" d="M42.1244926,32.835453c0,1.8051147-1.4738884,3.2790031-3.2789001,3.2790031 c-1.8051147,0-3.2790031-1.4738884-3.2790031-3.2790031c0-1.8050117,1.4738884-3.2789001,3.2790031-3.2789001 C40.6506042,29.5565529,42.1244926,31.0304413,42.1244926,32.835453z"/><path fill="#35d175" d="M41.7571449,34.3262749c-0.5429344,1.056694-1.6394119,1.7871971-2.9133301,1.7871971 c-1.807209,0-3.2783394-1.4711304-3.2783394-3.2783394c0-1.2739182,0.7305031-2.3800373,1.7970848-2.9229717 c-0.2367516,0.4443283-0.3654938,0.9479656-0.3654938,1.4911404c0,1.8069687,1.4812546,3.2785797,3.27882,3.2785797 C40.8091774,34.681881,41.3125725,34.5533791,41.7571449,34.3262749z"/><path fill="#fc545d" d="M53.5096779,32.835453c0,1.8051147-1.4738884,3.2790031-3.2789001,3.2790031 c-1.8051147,0-3.2790031-1.4738884-3.2790031-3.2790031c0-1.8050117,1.4738884-3.2789001,3.2790031-3.2789001 C52.0357895,29.5565529,53.5096779,31.0304413,53.5096779,32.835453z"/><path fill="#f14448" d="M53.152977,34.3262749c-0.5530624,1.056694-1.6490555,1.7871971-2.9229736,1.7871971 c-1.807209,0-3.27882-1.4711304-3.27882-3.2783394c0-1.2739182,0.7309837-2.3699112,1.7874374-2.9229717 c-0.2271042,0.4443283-0.3553658,0.9479656-0.3553658,1.4911404c0,1.8069687,1.4812546,3.2785797,3.2783394,3.2785797 C52.1948853,34.681881,52.7084045,34.5533791,53.152977,34.3262749z"/></g><g><path fill="#13181e" d="M94.2641983,35.3891907H61.4225731c-1.2683105,0-2.2946129-1.0263023-2.2946129-2.2946129 c0-1.2683086,1.0263023-2.2946091,2.2946129-2.2946091h32.8416252c1.2683105,0,2.2946091,1.0263004,2.2946091,2.2946091 C96.5588074,34.3628883,95.5325089,35.3891907,94.2641983,35.3891907z"/><path d="M96.3868256,32.2094498c-0.2756271-0.1148415-0.5736542-0.1834679-0.8952179-0.1834679H62.6561508 c-1.2621498,0-2.2946129,1.0324631-2.2946129,2.2946129c0,0.3212776,0.0683441,0.6193085,0.1831894,0.8949318 c-0.8257484-0.3442459-1.4223671-1.1473045-1.4223671-2.111145c0-1.2848358,1.0324631-2.2946091,2.2946091-2.2946091 h32.858429C95.2165451,30.8097725,96.0422974,31.3834248,96.3868256,32.2094498z"/></g><g><path fill="#fc545d" d="M84.2615128,87.7422791v6.5123367c0,1.5199356-1.2447357,2.7647552-2.77771,2.7647552H40.1300011 c-1.5329742,0-2.7777138-1.2448196-2.7777138-2.7647552V87.755394c0-1.5330505,1.2447395-2.7778778,2.7777138-2.7778778 h41.3669167C83.016777,84.9775162,84.2615128,86.2223434,84.2615128,87.7422791z"/><path fill="#f14448" d="M84.2615128,94.3332291c-0.0393448,1.4806671-1.2709732,2.686142-2.77771,2.686142H40.1300011 c-1.5329742,0-2.7777138-1.2448196-2.7777138-2.7647552V87.755394c0-1.5068207,1.192276-2.7254105,2.6859016-2.7778778 v6.5909576c0,1.5199356,1.24506,2.7647552,2.7780342,2.7647552H84.2615128z"/><path fill="#fff" d="M48.5727463,92.8308182c-0.1530342,0.2625351-0.4265175,0.4047546-0.7109528,0.4047546 c-0.3625412,0-0.4892235-0.1934052-1.6299629-0.8095093v1.4111633c0,0.4595032-0.372036,0.8204498-0.8204575,0.8204498 c-0.4593697,0-0.8204536-0.3609467-0.8204536-0.8204498v-1.4221115 c-1.1839943,0.6481171-1.287014,0.8204575-1.6409149,0.8204575c-0.2844353,0-0.5579185-0.1422195-0.7109528-0.4047546 c-0.2299538-0.3938065-0.0985527-0.8970413,0.2953835-1.1158447l1.2360268-0.7110214l-1.2360268-0.7110901 c-0.3939362-0.2296829-0.5253372-0.7329178-0.2953835-1.1267242 c0.2296829-0.3829193,0.7219048-0.5251312,1.1158409-0.2953796l1.2360268,0.7110825V88.159668 c0-0.4484863,0.361084-0.8204575,0.8204536-0.8204575c0.4484215,0,0.8204575,0.3719711,0.8204575,0.8204575v1.4221725 l1.2253418-0.7110825c0.3936691-0.2297516,0.8968391-0.0875397,1.1155739,0.2953796 c0.2299538,0.3938065,0.0985527,0.8970413-0.2951164,1.1267242l-1.2362938,0.7110901l1.2362938,0.7110214 C48.671299,91.9337769,48.8027,92.4370117,48.5727463,92.8308182z"/><path fill="#fff" d="M59.1262474,92.8308182c-0.1530342,0.2625351-0.4265175,0.4047546-0.7109528,0.4047546 c-0.3625412,0-0.4892235-0.1934052-1.6299629-0.8095093v1.4111633c0,0.4595032-0.372036,0.8204498-0.8204575,0.8204498 c-0.4593697,0-0.8204536-0.3609467-0.8204536-0.8204498v-1.4221115 c-1.1839981,0.6481171-1.287014,0.8204575-1.6409149,0.8204575c-0.2844353,0-0.5579185-0.1422195-0.7109528-0.4047546 c-0.2299538-0.3938065-0.0985527-0.8970413,0.2953835-1.1158447l1.2360268-0.7110214l-1.2360268-0.7110901 c-0.3939362-0.2296829-0.5253372-0.7329178-0.2953835-1.1267242 c0.2296829-0.3829193,0.7219048-0.5251312,1.1158409-0.2953796l1.2360268,0.7110825V88.159668 c0-0.4484863,0.361084-0.8204575,0.8204536-0.8204575c0.4484215,0,0.8204575,0.3719711,0.8204575,0.8204575v1.4221725 l1.2253418-0.7110825c0.3936691-0.2297516,0.8968391-0.0875397,1.1155739,0.2953796 c0.2299538,0.3938065,0.0985527,0.8970413-0.2951164,1.1267242l-1.2362938,0.7110901l1.2362938,0.7110214 C59.2248001,91.9337769,59.3562012,92.4370117,59.1262474,92.8308182z"/><path fill="#fff" d="M69.6797485,92.8308182c-0.1530304,0.2625351-0.4265213,0.4047546-0.7109528,0.4047546 c-0.3625412,0-0.4892197-0.1934052-1.6299667-0.8095093v1.4111633c0,0.4595032-0.3720322,0.8204498-0.8204498,0.8204498 c-0.4593735,0-0.8204575-0.3609467-0.8204575-0.8204498v-1.4221115 c-1.1839981,0.6481171-1.2870102,0.8204575-1.6409149,0.8204575c-0.2844353,0-0.5579185-0.1422195-0.7109528-0.4047546 c-0.2299538-0.3938065-0.0985527-0.8970413,0.2953835-1.1158447l1.2360268-0.7110214l-1.2360268-0.7110901 c-0.3939362-0.2296829-0.5253372-0.7329178-0.2953835-1.1267242 c0.2296829-0.3829193,0.7219009-0.5251312,1.1158371-0.2953796l1.2360306,0.7110825V88.159668 c0-0.4484863,0.361084-0.8204575,0.8204575-0.8204575c0.4484177,0,0.8204498,0.3719711,0.8204498,0.8204575v1.4221725 l1.2253418-0.7110825c0.3936691-0.2297516,0.896843-0.0875397,1.1155777,0.2953796 c0.22995,0.3938065,0.0985489,0.8970413-0.2951202,1.1267242l-1.23629,0.7110901l1.23629,0.7110214 C69.7782974,91.9337769,69.9096985,92.4370117,69.6797485,92.8308182z"/><path fill="#fff" d="M80.2332458,92.8308182c-0.1530304,0.2625351-0.4265137,0.4047546-0.7109528,0.4047546 c-0.3625412,0-0.4892197-0.1934052-1.6299591-0.8095093v1.4111633c0,0.4595032-0.3720398,0.8204498-0.8204575,0.8204498 c-0.4593735,0-0.8204575-0.3609467-0.8204575-0.8204498v-1.4221115 c-1.1839905,0.6481171-1.2870102,0.8204575-1.6409073,0.8204575c-0.2844391,0-0.5579224-0.1422195-0.7109604-0.4047546 c-0.22995-0.3938065-0.0985489-0.8970413,0.2953873-1.1158447l1.2360229-0.7110214l-1.2360229-0.7110901 c-0.3939362-0.2296829-0.5253372-0.7329178-0.2953873-1.1267242 c0.2296906-0.3829193,0.7219086-0.5251312,1.1158447-0.2953796l1.2360229,0.7110825V88.159668 c0-0.4484863,0.361084-0.8204575,0.8204575-0.8204575c0.4484177,0,0.8204575,0.3719711,0.8204575,0.8204575v1.4221725 l1.2253418-0.7110825c0.3936691-0.2297516,0.8968353-0.0875397,1.1155701,0.2953796 c0.2299576,0.3938065,0.0985565,0.8970413-0.2951126,1.1267242l-1.2362976,0.7110901l1.2362976,0.7110214 C80.3318024,91.9337769,80.4632034,92.4370117,80.2332458,92.8308182z"/><g><path fill="#9ee6ff" d="M77.4816818,63.115139c0,4.6893959-1.9290237,8.9214439-5.0469589,11.9562569 c-3.0016251,2.9184036-7.1006241,4.7226334-11.623661,4.7226334c-4.0409355,0-7.7491722-1.4383926-10.6342812-3.824646 c-0.4406929-0.3658447-0.8647423-0.7566528-1.2638206-1.1640549c-2.9600105-3.0181656-4.780838-7.1338577-4.780838-11.6901894 c0-9.2124825,7.4664078-16.6788864,16.6789398-16.6788864C70.0233917,46.4362526,77.4816818,53.9026566,77.4816818,63.115139z"/><path fill="#592c84" d="M60.8110619,79.7940292c-4.0409355,0-7.7491722-1.4383926-10.6342812-3.824646 c-0.4406929-0.3658447-0.8647423-0.7566528-1.2638206-1.1640549c1.0226669-1.6545792,2.8601418-2.7604218,4.95541-2.7604218 h13.4528122c2.2034607,0,4.1241608,1.2222595,5.1135406,3.0264893 C69.4330978,77.9897995,65.3340988,79.7940292,60.8110619,79.7940292z"/><path fill="#13181e" d="M52.0213013,56.5355148v5.1524124h16.7898178v-7.3398399 c-0.7269669,1.3086586-2.1241074,2.1874275-3.7235947,2.1874275H52.0213013z"/><path fill="#d3e6ed" d="M65.2673569,73.246666v3.1889038c0,0.6348114-0.6210861,1.0836716-1.2238388,0.8844604 l-3.1465416-1.0399323c-0.189579-0.0626526-0.394268-0.0627365-0.5838966-0.0002441l-3.1602249,1.0415497 c-0.6026039,0.1986008-1.2230988-0.2502213-1.2230988-0.8847122V73.246666 c0-2.5747528,2.0874176-4.6688461,4.6688004-4.6688461c1.2906494,0,2.4562225,0.5202484,3.3056412,1.3697128 C64.7471085,70.7904434,65.2673569,71.9559708,65.2673569,73.246666z"/><path fill="#fff" d="M65.2673569,72.597374v3.1889114c0,0.6348114-0.6210861,1.0836716-1.2238388,0.8844604 l-3.1465416-1.0399323c-0.189579-0.0626602-0.394268-0.0627441-0.5838966-0.0002441l-3.1602249,1.0415421 c-0.6026039,0.1986084-1.2230988-0.2502136-1.2230988-0.8847046v-3.190033 c0-2.5747452,2.0874176-4.6688385,4.6688004-4.6688385c1.2906494,0,2.4562225,0.5202484,3.3056412,1.3697128 C64.7471085,70.1411514,65.2673569,71.3066864,65.2673569,72.597374z"/><path fill="#ffc27c" d="M57.731842,69.6893311v2.3863449c0,1.4833145,1.205246,2.6827393,2.682869,2.6827393 c0.7358551,0,1.4079247-0.2955322,1.894783-0.7822647c0.4866905-0.4866867,0.7936592-1.1588364,0.7936592-1.9004745 v-2.3863449H57.731842z"/><path fill="#f7b26d" d="M63.1067085,69.6866302v2.3911362c0,0.7357025-0.3119926,1.4154282-0.7996979,1.8952713 c-0.0240135,0.0239639-0.0560303,0.0559845-0.0880508,0.0799484 c0.0800476-0.2559052,0.1279793-0.527771,0.1279793-0.8077011l0,0c0-1.3205566-1.0705223-2.3910828-2.3910789-2.3910828 h-2.2230835v-1.167572H63.1067085z"/><path fill="#ffc27c" d="M66.6504898,56.2057991v8.1366997c0,2.9936752-2.0217896,5.7325516-4.9588432,6.3120804 c-3.9793205,0.7851868-7.4705811-2.2487564-7.4705811-6.085022v-8.3637581H66.6504898z"/><path fill="#fff" d="M56.6246986,68.4511642c-0.5117111-0.5119934-0.9108353-1.1075897-1.1855507-1.7707291 c-0.0917587-0.2206726,0.0129471-0.4737167,0.2336197-0.5651932 c0.2201118-0.0917587,0.4739952,0.0132294,0.5646286,0.2336197 c0.2319336,0.5581589,0.5674438,1.0597382,0.9986572,1.4909439c0.1688805,0.1688843,0.1688805,0.4427567,0,0.6113586 C57.067852,68.6193619,56.7942619,68.6207275,56.6246986,68.4511642z" opacity=".3"/><path fill="#fff" d="M55.0709839,65.3093948c-0.0191383-0.1441116-0.0332108-0.2896347-0.0410919-0.435997 c-0.0129471-0.2384033,0.1700058-0.4421921,0.4086952-0.4551392 c0.2415009-0.0073166,0.441906,0.1700058,0.4548531,0.4084167 c0.0067558,0.1244049,0.0185776,0.2479706,0.0343399,0.3701324 c0.0315247,0.2367096-0.1356697,0.45401-0.3721046,0.4849701 C55.3201675,65.7129517,55.1017303,65.5470657,55.0709839,65.3093948z" opacity=".3"/><path fill="#ffc27c" d="M66.65345,60.0721054c-0.0006714,0-0.0012436,0.000206-0.001915,0.000206v4.6148148 c0.0006714,0,0.0012436,0.0002136,0.001915,0.0002136c1.272583,0,2.3075943-1.0350113,2.3075943-2.3075943 S67.926033,60.0721054,66.65345,60.0721054z"/><path d="M62.4203949,61.5142403v0.913578c0,0.5978279,0.4846344,1.0824661,1.0824623,1.0824661l0,0 c0.5978279,0,1.0824623-0.4846382,1.0824623-1.0824661v-0.913578c0-0.5978279-0.4846344-1.0824661-1.0824623-1.0824661 l0,0C62.9050293,60.4317741,62.4203949,60.9164124,62.4203949,61.5142403z"/><path d="M56.2874451,61.5142403v0.913578c0,0.5978279,0.4846344,1.0824661,1.0824623,1.0824661h0.0000038 c0.5978279,0,1.0824623-0.4846382,1.0824623-1.0824661v-0.913578c0-0.5978279-0.4846344-1.0824661-1.0824623-1.0824661 h-0.0000038C56.7720795,60.4317741,56.2874451,60.9164124,56.2874451,61.5142403z"/><path d="M60.4363594,65.1578979c-0.2238617,0-0.4054832-0.1816177-0.4054832-0.4054794v-0.9688301 c0-0.2238617,0.1816216-0.4054871,0.4054832-0.4054871s0.4054832,0.1816254,0.4054832,0.4054871v0.9688301 C60.8418427,64.9762802,60.6602211,65.1578979,60.4363594,65.1578979z"/><path fill="#ffc27c" d="M54.2204781,60.0721054c0.0006752,0,0.0012436,0.000206,0.0019188,0.000206v4.6148148 c-0.0006752,0-0.0012436,0.0002136-0.0019188,0.0002136c-1.2725792,0-2.3075905-1.0350113-2.3075905-2.3075943 S52.9478989,60.0721054,54.2204781,60.0721054z"/><path d="M60.4384537,68.1234207c-0.7688675,0-1.4997215-0.3366241-2.0052452-0.9240494 c-0.1446037-0.1681137-0.1257935-0.4212723,0.0423203-0.5658722 c0.1669426-0.1442108,0.4212723-0.1257935,0.565876,0.0423203c0.3530807,0.4099045,0.862133,0.6450348,1.397049,0.6450348 c0.5384407,0,1.0451431-0.2327728,1.3903885-0.6383743c0.1442108-0.1688995,0.3969727-0.1888809,0.5658722-0.0454559 c0.1685066,0.1438217,0.1888847,0.3969727,0.0454597,0.5658722 C61.9420929,67.7879715,61.2124138,68.1234207,60.4384537,68.1234207z"/><g><path fill="#fff" d="M57.9840736,61.6879463c0,0.2108269-0.1730423,0.3838348-0.3839035,0.3838348 c-0.2162704,0-0.3838348-0.173008-0.3838348-0.3838348c0-0.2108612,0.1675644-0.3838692,0.3838348-0.3838692 C57.8110313,61.3040771,57.9840736,61.4770851,57.9840736,61.6879463z"/></g><g><path fill="#fff" d="M64.1596756,61.4743805c0,0.2108269-0.1730423,0.3838348-0.3838997,0.3838348 c-0.2162704,0-0.3838387-0.173008-0.3838387-0.3838348c0-0.2108612,0.1675682-0.3838692,0.3838387-0.3838692 C63.9866333,61.0905113,64.1596756,61.2635193,64.1596756,61.4743805z"/></g><g><path fill="#24272b" d="M52.0213013,52.8716087v4.5306473h13.225769c2.3804855,0,4.3130569-1.9261665,4.3130569-4.3066521 v-0.6335526c0-1.2286377-0.9983139-2.2269096-2.2269058-2.2269096H54.6578484 C53.2052155,50.2351418,52.0213013,51.4189758,52.0213013,52.8716087z"/></g><g opacity=".2"><path fill="#fff" d="M59.6408081,52.8611565h4.1635551c0.4058952,0,0.7348671-0.328968,0.7348671-0.7348671 s-0.3289719-0.7348671-0.7348671-0.7348671h-4.1635551c-0.405899,0-0.7348671,0.328968-0.7348671,0.7348671 S59.2349091,52.8611565,59.6408081,52.8611565z"/><path fill="#fff" d="M66.2919998,52.8611565h0.59478c0.405899,0,0.7348709-0.328968,0.7348709-0.7348671 s-0.3289719-0.7348671-0.7348709-0.7348671h-0.59478c-0.405899,0-0.7348633,0.328968-0.7348633,0.7348671 S65.8861008,52.8611565,66.2919998,52.8611565z"/></g></g></g><g><path fill="#43a1ff" d="M40.5569,47.6961784c0,0.6900024-0.5598145,1.25-1.2399902,1.25H26.2070465 c-0.6899414,0-1.25-0.5599976-1.25-1.25s0.5600586-1.25,1.25-1.25h13.1098633 C39.9970856,46.4461784,40.5569,47.006176,40.5569,47.6961784z"/><path fill="#2c8cff" d="M30.9470367,48.9429779h-4.7399902c-0.6899414,0-1.25-0.5599976-1.25-1.25s0.5600586-1.25,1.25-1.25 h4.7399902c-0.6901855,0-1.25,0.5599976-1.25,1.25S30.2568512,48.9429779,30.9470367,48.9429779z"/><path fill="#fc545d" d="M37.2568512,52.9012794c0,0.6900024-0.5598145,1.25-1.25,1.25h-9.7998047 c-0.6899414,0-1.25-0.5599976-1.25-1.25s0.5600586-1.25,1.25-1.25h9.7998047 C36.6970367,51.6512794,37.2568512,52.211277,37.2568512,52.9012794z"/><path fill="#f14448" d="M30.9470367,54.1529999h-4.7399902c-0.6899414,0-1.25-0.5599976-1.25-1.25s0.5600586-1.25,1.25-1.25 h4.7399902c-0.6901855,0-1.25,0.5599976-1.25,1.25S30.2568512,54.1529999,30.9470367,54.1529999z"/></g><g><path fill="#43a1ff" d="M121.914772,76.1798782v13.9239044c0,6.8834229-3.5942841,13.2678757-9.4797134,16.8251114 l-7.3545914,4.4534378c-0.8316879,0.5081558-1.8848877,0.5081558-2.7256012,0l-7.3548126-4.4534378 c-5.8854294-3.5664291-9.4797134-9.9509354-9.4797134-16.8251114V76.1798782 c0-1.2196121,0.8409348-2.2728729,2.023613-2.5592957c7.548584-1.8202057,12.2053146-4.9524002,14.487442-6.9111633 c0.970192-0.8222733,2.4023514-0.8222733,3.3723145,0.0092468c2.2823563,1.9495163,6.938858,5.0817108,14.4876709,6.9019165 C121.0738297,73.9070053,121.914772,74.9602661,121.914772,76.1798782z"/><path fill="#fff" d="M117.2111435,79.543396V90c0,5.1621857-2.74366,10.0297623-7.1539993,12.6921692l-5.1925735,3.1501541 c-0.7011108,0.4166718-1.5853119,0.4166718-2.2762527,0c-0.1002731-0.0604324-4.7459564-2.8605118-4.4510269-2.6827469 c-0.01017,0.01017-0.01017,0-0.0203476-0.0202789l-0.7417908-0.4471283 c-2.8250351-1.7173615-4.9690475-4.3289642-6.1378098-7.3368988C90.5769196,93.6684265,90.2211533,91.849472,90.2211533,90 V79.533226c0-0.9653244,0.6403275-1.8291245,1.5751419-2.1034546 c4.7658539-1.3921661,8.282074-3.3432922,10.6903076-5.0606537c0.7112808-0.5080872,1.6664352-0.5283737,2.3983078-0.0609665 c0.0406876,0.0203476,0.0709534,0.0406876,0.1014709,0.0609665c1.890213,1.3312073,4.5016403,2.845314,7.5502014,4.0241241 c0.7217026,0.2743912,1.4634933,0.5385513,2.2459793,0.782486c0.2845612,0.091423,0.5688782,0.1829071,0.8636093,0.2641525 C116.5710602,77.7142715,117.2111435,78.5780716,117.2111435,79.543396z"/><path fill="#e5f5f9" d="M104.8849106,72.3081512c0,1.0771561-0.5386047,2.0933456-1.4533234,2.6725769 c-2.2965927,1.4429703-5.3553314,2.9469681-9.2369843,4.0850906c-0.9248886,0.2743912-1.5751419,1.1279526-1.5751419,2.1035156 v10.466713c0,1.849472,0.3555222,3.6684189,1.0161896,5.3553314c0.9246445,2.3880081,2.4692688,4.5219803,4.4812927,6.1479187 l-0.7417908-0.4471283c-2.8250351-1.7173615-4.9690475-4.3289642-6.1378098-7.3368988 C90.5769196,93.6684265,90.2211533,91.849472,90.2211533,90V79.533226c0-0.9653244,0.6301575-1.8291245,1.5649643-2.1034546 c4.7658615-1.3921661,8.2922516-3.3432922,10.7004852-5.0606537 C103.1978836,71.8610306,104.153038,71.840744,104.8849106,72.3081512z"/><g opacity=".3"><path fill="#fff" d="M120.4388657,78.1394882l0.0000076,10.4274673c0,0.5627823-0.4560928,1.018898-1.0188446,1.0188904 s-1.0188446-0.4561386-1.0188446-1.0189209l-0.0000076-10.4274673c0-0.5627823,0.4560928-1.018898,1.0188446-1.0188904 S120.4388657,77.5767059,120.4388657,78.1394882z"/><path fill="#fff" d="M120.4388733,92.0161057v0.8246689c0,0.5627899-0.4560928,1.018898-1.0188446,1.0188904 s-1.0188446-0.456131-1.0188446-1.0189209v-0.8246689c0-0.5627899,0.4560928-1.018898,1.0188446-1.0188904 S120.4388733,91.4533157,120.4388733,92.0161057z"/></g><g><path fill="#24272b" d="M106.3589935,88.5239563c-0.3713074,0.3773041-0.53302,0.904335-0.4192276,1.4193726l0.2695084,1.2336884 l0.7366257,3.3478775c0.1197891,0.5449448-0.2934494,1.0660477-0.8564148,1.0660477h-4.7432404 c-0.5569687,0-0.9762039-0.5211029-0.8564148-1.0660477l0.7366333-3.3478775l0.2695084-1.2396774 c0.1137924-0.4970627-0.0299377-1.0241623-0.3892975-1.3894043c-2.0953674-2.1252747-0.9338913-5.6685257,1.8805389-6.2106171 C106.5551605,81.6473236,108.8684311,85.9419327,106.3589935,88.5239563z"/><path fill="#13181e" d="M102.7776184,88.5479355c0.3593216,0.365242,0.5030518,0.8923416,0.3952484,1.3894043 l-1.0121307,4.5875549c-0.1197891,0.5449448,0.2994461,1.0660477,0.8564148,1.0660477h-1.6709061 c-0.5569687,0-0.9762039-0.5211029-0.8564148-1.0660477l1.0061417-4.5875549 c0.1137924-0.4970627-0.0299377-1.0241623-0.3892975-1.3894043c-2.0895844-2.1052704-0.9518661-5.665062,1.8805389-6.2106171 c0.5390244-0.1017685,1.0660553-0.0897751,1.5511551,0.0239792 C101.7640381,82.9988403,100.7363358,86.4914246,102.7776184,88.5479355z"/></g></g></g></svg>